<svg width="115" height="22" viewBox="0 0 115 22" fill="none" xmlns="http://www.w3.org/2000/svg">
<path d="M12.692 8.75152C12.7399 8.77508 12.7854 8.8046 12.8255 8.84449L12.9598 8.97877C12.9805 8.99902 13.0012 9.0196 13.0213 9.04048L18.8919 14.9112L21.4329 12.3705C22.1894 11.6137 22.1894 10.3867 21.4329 9.62988L15.6316 3.82861L11.2637 8.19652C11.7973 8.24599 12.2864 8.44591 12.692 8.75152Z" fill="#FFBC79"/>
<path d="M8.20805 10.6446C8.30337 9.88543 8.70086 9.22176 9.27674 8.77512L14.9273 3.12446L12.3706 0.567602C11.6137 -0.189201 10.3864 -0.189201 9.62994 0.567602L3.88049 6.31704L8.20805 10.6446Z" fill="#5344EA"/>
<path d="M8.56219 12.4069L3.17613 7.021L0.567603 9.62968C-0.189201 10.3865 -0.189201 11.6135 0.567603 12.3703L6.36323 18.1661L10.726 13.8032C9.79893 13.7138 9.00584 13.1744 8.56219 12.4069Z" fill="#FFBC79"/>
<path d="M13.8053 11.2324C13.7372 12.0619 13.3105 12.7876 12.6796 13.2577L7.06726 18.87L9.62947 21.4324C10.3863 22.1892 11.6136 22.1892 12.3704 21.4324L18.188 15.6148L13.8053 11.2324Z" fill="#5344EA"/>
<path d="M34.072 20.24C33.048 20.24 32.144 19.992 31.36 19.496C30.592 19 29.992 18.296 29.56 17.384C29.128 16.456 28.912 15.368 28.912 14.12C28.912 12.856 29.128 11.776 29.56 10.88C29.992 9.968 30.592 9.264 31.36 8.768C32.144 8.272 33.048 8.024 34.072 8.024C35.048 8.024 35.896 8.264 36.616 8.744C37.352 9.224 37.848 9.856 38.104 10.64H37.84V4.4C37.84 3.904 37.968 3.528 38.224 3.272C38.48 3.016 38.848 2.888 39.328 2.888C39.808 2.888 40.176 3.016 40.432 3.272C40.704 3.528 40.84 3.904 40.84 4.4V18.656C40.84 19.152 40.712 19.536 40.456 19.808C40.2 20.064 39.832 20.192 39.352 20.192C38.872 20.192 38.504 20.064 38.248 19.808C37.992 19.536 37.864 19.152 37.864 18.656V16.784L38.128 17.504C37.888 18.336 37.4 19 36.664 19.496C35.928 19.992 35.064 20.24 34.072 20.24ZM34.912 17.96C35.504 17.96 36.024 17.816 36.472 17.528C36.92 17.24 37.264 16.816 37.504 16.256C37.76 15.68 37.888 14.968 37.888 14.12C37.888 12.84 37.616 11.888 37.072 11.264C36.528 10.624 35.808 10.304 34.912 10.304C34.32 10.304 33.8 10.448 33.352 10.736C32.904 11.008 32.552 11.432 32.296 12.008C32.056 12.568 31.936 13.272 31.936 14.12C31.936 15.384 32.208 16.344 32.752 17C33.296 17.64 34.016 17.96 34.912 17.96ZM47.8146 20.24C46.9666 20.24 46.2066 20.08 45.5346 19.76C44.8786 19.424 44.3586 18.976 43.9746 18.416C43.6066 17.856 43.4226 17.224 43.4226 16.52C43.4226 15.656 43.6466 14.976 44.0946 14.48C44.5426 13.968 45.2706 13.6 46.2786 13.376C47.2866 13.152 48.6386 13.04 50.3346 13.04H51.5346V14.768H50.3586C49.3666 14.768 48.5746 14.816 47.9826 14.912C47.3906 15.008 46.9666 15.176 46.7106 15.416C46.4706 15.64 46.3506 15.96 46.3506 16.376C46.3506 16.904 46.5346 17.336 46.9026 17.672C47.2706 18.008 47.7826 18.176 48.4386 18.176C48.9666 18.176 49.4306 18.056 49.8306 17.816C50.2466 17.56 50.5746 17.216 50.8146 16.784C51.0546 16.352 51.1746 15.856 51.1746 15.296V12.536C51.1746 11.736 50.9986 11.16 50.6466 10.808C50.2946 10.456 49.7026 10.28 48.8706 10.28C48.4066 10.28 47.9026 10.336 47.3586 10.448C46.8306 10.56 46.2706 10.752 45.6786 11.024C45.3746 11.168 45.1026 11.208 44.8626 11.144C44.6386 11.08 44.4626 10.952 44.3346 10.76C44.2066 10.552 44.1426 10.328 44.1426 10.088C44.1426 9.848 44.2066 9.616 44.3346 9.392C44.4626 9.152 44.6786 8.976 44.9826 8.864C45.7186 8.56 46.4226 8.344 47.0946 8.216C47.7826 8.088 48.4066 8.024 48.9666 8.024C50.1186 8.024 51.0626 8.2 51.7986 8.552C52.5506 8.904 53.1106 9.44 53.4786 10.16C53.8466 10.864 54.0306 11.776 54.0306 12.896V18.656C54.0306 19.152 53.9106 19.536 53.6706 19.808C53.4306 20.064 53.0866 20.192 52.6386 20.192C52.1906 20.192 51.8386 20.064 51.5826 19.808C51.3426 19.536 51.2226 19.152 51.2226 18.656V17.504H51.4146C51.3026 18.064 51.0786 18.552 50.7426 18.968C50.4226 19.368 50.0146 19.68 49.5186 19.904C49.0226 20.128 48.4546 20.24 47.8146 20.24ZM61.3716 20.24C60.6836 20.24 59.9556 20.168 59.1876 20.024C58.4196 19.88 57.7316 19.632 57.1236 19.28C56.8676 19.12 56.6836 18.936 56.5716 18.728C56.4756 18.504 56.4356 18.288 56.4516 18.08C56.4836 17.856 56.5636 17.664 56.6916 17.504C56.8356 17.344 57.0116 17.24 57.2196 17.192C57.4436 17.144 57.6836 17.184 57.9396 17.312C58.5796 17.616 59.1796 17.832 59.7396 17.96C60.2996 18.072 60.8516 18.128 61.3956 18.128C62.1636 18.128 62.7316 18 63.0996 17.744C63.4836 17.472 63.6756 17.12 63.6756 16.688C63.6756 16.32 63.5476 16.04 63.2916 15.848C63.0516 15.64 62.6836 15.488 62.1876 15.392L59.7876 14.936C58.7956 14.744 58.0356 14.384 57.5076 13.856C56.9956 13.312 56.7396 12.616 56.7396 11.768C56.7396 11 56.9476 10.336 57.3636 9.776C57.7956 9.216 58.3876 8.784 59.1396 8.48C59.8916 8.176 60.7556 8.024 61.7316 8.024C62.4356 8.024 63.0916 8.104 63.6996 8.264C64.3236 8.408 64.9236 8.64 65.4996 8.96C65.7396 9.088 65.8996 9.256 65.9796 9.464C66.0756 9.672 66.0996 9.888 66.0516 10.112C66.0036 10.32 65.9076 10.512 65.7636 10.688C65.6196 10.848 65.4356 10.952 65.2116 11C65.0036 11.032 64.7636 10.984 64.4916 10.856C63.9956 10.6 63.5156 10.416 63.0516 10.304C62.6036 10.192 62.1716 10.136 61.7556 10.136C60.9716 10.136 60.3876 10.272 60.0036 10.544C59.6356 10.816 59.4516 11.176 59.4516 11.624C59.4516 11.96 59.5636 12.24 59.7876 12.464C60.0116 12.688 60.3556 12.84 60.8196 12.92L63.2196 13.376C64.2596 13.568 65.0436 13.92 65.5716 14.432C66.1156 14.944 66.3876 15.632 66.3876 16.496C66.3876 17.664 65.9316 18.584 65.0196 19.256C64.1076 19.912 62.8916 20.24 61.3716 20.24ZM70.2824 20.192C69.8024 20.192 69.4344 20.064 69.1784 19.808C68.9224 19.536 68.7944 19.152 68.7944 18.656V4.4C68.7944 3.904 68.9224 3.528 69.1784 3.272C69.4344 3.016 69.8024 2.888 70.2824 2.888C70.7624 2.888 71.1304 3.016 71.3864 3.272C71.6584 3.528 71.7944 3.904 71.7944 4.4V10.616H71.4584C71.8104 9.768 72.3544 9.128 73.0904 8.696C73.8424 8.248 74.6904 8.024 75.6344 8.024C76.5784 8.024 77.3544 8.2 77.9624 8.552C78.5704 8.904 79.0264 9.44 79.3304 10.16C79.6344 10.864 79.7864 11.76 79.7864 12.848V18.656C79.7864 19.152 79.6584 19.536 79.4024 19.808C79.1464 20.064 78.7784 20.192 78.2984 20.192C77.8184 20.192 77.4424 20.064 77.1704 19.808C76.9144 19.536 76.7864 19.152 76.7864 18.656V12.992C76.7864 12.08 76.6104 11.416 76.2584 11C75.9224 10.584 75.3944 10.376 74.6744 10.376C73.7944 10.376 73.0904 10.656 72.5624 11.216C72.0504 11.76 71.7944 12.488 71.7944 13.4V18.656C71.7944 19.68 71.2904 20.192 70.2824 20.192ZM84.3214 20.192C83.8414 20.192 83.4734 20.064 83.2174 19.808C82.9614 19.536 82.8334 19.152 82.8334 18.656V9.584C82.8334 9.088 82.9614 8.712 83.2174 8.456C83.4734 8.2 83.8334 8.072 84.2974 8.072C84.7614 8.072 85.1214 8.2 85.3774 8.456C85.6334 8.712 85.7614 9.088 85.7614 9.584V11.216L85.4974 10.616C85.8494 9.768 86.3934 9.128 87.1294 8.696C87.8814 8.248 88.7294 8.024 89.6734 8.024C90.6174 8.024 91.3934 8.2 92.0014 8.552C92.6094 8.904 93.0654 9.44 93.3694 10.16C93.6734 10.864 93.8254 11.76 93.8254 12.848V18.656C93.8254 19.152 93.6974 19.536 93.4414 19.808C93.1854 20.064 92.8174 20.192 92.3374 20.192C91.8574 20.192 91.4814 20.064 91.2094 19.808C90.9534 19.536 90.8254 19.152 90.8254 18.656V12.992C90.8254 12.08 90.6494 11.416 90.2974 11C89.9614 10.584 89.4334 10.376 88.7134 10.376C87.8334 10.376 87.1294 10.656 86.6014 11.216C86.0894 11.76 85.8334 12.488 85.8334 13.4V18.656C85.8334 19.68 85.3294 20.192 84.3214 20.192ZM98.3605 20.168C97.8805 20.168 97.5125 20.024 97.2565 19.736C97.0005 19.448 96.8725 19.048 96.8725 18.536V9.728C96.8725 9.2 97.0005 8.8 97.2565 8.528C97.5125 8.24 97.8805 8.096 98.3605 8.096C98.8405 8.096 99.2085 8.24 99.4645 8.528C99.7365 8.8 99.8725 9.2 99.8725 9.728V18.536C99.8725 19.048 99.7445 19.448 99.4885 19.736C99.2325 20.024 98.8565 20.168 98.3605 20.168ZM98.3605 5.864C97.8005 5.864 97.3605 5.728 97.0405 5.456C96.7365 5.168 96.5845 4.776 96.5845 4.28C96.5845 3.768 96.7365 3.376 97.0405 3.104C97.3605 2.832 97.8005 2.696 98.3605 2.696C98.9365 2.696 99.3765 2.832 99.6805 3.104C99.9845 3.376 100.137 3.768 100.137 4.28C100.137 4.776 99.9845 5.168 99.6805 5.456C99.3765 5.728 98.9365 5.864 98.3605 5.864ZM103.806 20.12C103.454 20.12 103.158 20.024 102.918 19.832C102.694 19.624 102.574 19.36 102.558 19.04C102.558 18.72 102.694 18.384 102.966 18.032L106.854 13.232V14.648L103.206 10.16C102.918 9.808 102.782 9.472 102.798 9.152C102.814 8.832 102.934 8.576 103.158 8.384C103.398 8.176 103.694 8.072 104.046 8.072C104.414 8.072 104.718 8.136 104.958 8.264C105.214 8.392 105.446 8.592 105.654 8.864L108.534 12.56H107.478L110.382 8.864C110.606 8.592 110.838 8.392 111.078 8.264C111.318 8.136 111.614 8.072 111.966 8.072C112.334 8.072 112.63 8.176 112.854 8.384C113.078 8.592 113.19 8.856 113.19 9.176C113.206 9.496 113.07 9.832 112.782 10.184L109.158 14.624V13.28L113.046 18.032C113.334 18.368 113.47 18.696 113.454 19.016C113.438 19.336 113.31 19.6 113.07 19.808C112.846 20.016 112.55 20.12 112.182 20.12C111.83 20.12 111.534 20.056 111.294 19.928C111.054 19.8 110.822 19.6 110.598 19.328L107.478 15.392H108.486L105.39 19.328C105.182 19.584 104.958 19.784 104.718 19.928C104.478 20.056 104.174 20.12 103.806 20.12Z" fill="white"/>
</svg>
