<svg width="50" height="50" viewBox="0 0 50 50" fill="none" xmlns="http://www.w3.org/2000/svg">
<path d="M28.845 19.8898C28.9538 19.9433 29.0573 20.0104 29.1484 20.1011L29.4536 20.4063C29.5007 20.4523 29.5477 20.499 29.5934 20.5465L42.9355 33.889L48.7105 28.1147C50.4298 26.3947 50.4298 23.6061 48.7105 21.886L35.5258 8.70142L25.5989 18.6284C26.8116 18.7409 27.9232 19.1952 28.845 19.8898Z" fill="#FEBB7B"/>
<path d="M18.6541 24.1921C18.8708 22.4667 19.7741 20.9584 21.0829 19.9433L33.925 7.101L28.1144 1.29C26.3942 -0.429999 23.6049 -0.429999 21.8857 1.29L8.81885 14.3568L18.6541 24.1921Z" fill="#4F46E5"/>
<path d="M19.4593 28.1972L7.21841 15.9565L1.28999 21.8853C-0.429998 23.6054 -0.429998 26.394 1.28999 28.114L14.4618 41.2862L24.377 31.3705C22.2701 31.1674 20.4676 29.9415 19.4593 28.1972Z" fill="#FEBB7B"/>
<path d="M31.3751 25.5281C31.2203 27.4133 30.2506 29.0626 28.8167 30.131L16.0615 42.8862L21.8847 48.7098C23.6047 50.4297 26.394 50.4297 28.114 48.7098L41.3357 35.488L31.3751 25.5281Z" fill="#4F46E5"/>
</svg>
