<svg width="22" height="22" viewBox="0 0 22 22" fill="none" xmlns="http://www.w3.org/2000/svg">
<path d="M12.692 8.75152C12.7399 8.77508 12.7854 8.8046 12.8255 8.84449L12.9598 8.97877C12.9805 8.99902 13.0012 9.0196 13.0213 9.04048L18.8919 14.9112L21.4329 12.3705C22.1894 11.6137 22.1894 10.3867 21.4329 9.62988L15.6316 3.82861L11.2637 8.19652C11.7973 8.24599 12.2864 8.44591 12.692 8.75152Z" fill="#FEBB7B"/>
<path d="M8.20793 10.6446C8.30325 9.88543 8.70074 9.22176 9.27662 8.77512L14.9272 3.12446L12.3705 0.567602C11.6136 -0.189201 10.3863 -0.189201 9.62982 0.567602L3.88037 6.31704L8.20793 10.6446Z" fill="#4F46E5"/>
<path d="M8.56219 12.4069L3.17613 7.021L0.567603 9.62968C-0.189201 10.3865 -0.189201 11.6135 0.567603 12.3703L6.36323 18.1661L10.726 13.8032C9.79893 13.7138 9.00584 13.1744 8.56219 12.4069Z" fill="#FEBB7B"/>
<path d="M13.8052 11.2324C13.7371 12.0619 13.3104 12.7876 12.6795 13.2577L7.06714 18.87L9.62935 21.4324C10.3862 22.1892 11.6135 22.1892 12.3703 21.4324L18.1879 15.6148L13.8052 11.2324Z" fill="#4F46E5"/>
</svg>
